<?xml version="1.0" encoding="UTF-8"?>
<!-- Generator: visioncortex VTracer 0.6.3 -->
<svg version="1.1" xmlns="http://www.w3.org/2000/svg" width="1280" height="1280">
<path d="M0 0 C27.12 -0.39 50.02 7.08 73.91 19.08 C73.91 19.74 73.91 20.4 73.91 21.08 C74.5 21.2 75.09 21.32 75.69 21.44 C79.35 22.5 82.11 24.81 85.16 27.02 C85.81 27.48 86.46 27.93 87.13 28.4 C88.76 29.57 90.34 30.82 91.91 32.08 C91.91 32.74 91.91 33.4 91.91 34.08 C92.49 34.35 93.07 34.62 93.66 34.89 C95.97 36.11 97.93 37.39 99.91 39.08 C99.91 39.74 99.91 40.4 99.91 41.08 C100.57 41.08 101.23 41.08 101.91 41.08 C103.6 42.73 103.6 42.73 105.47 44.89 C106.09 45.6 106.71 46.31 107.35 47.04 C108.91 49.08 108.91 49.08 109.91 52.08 C110.57 52.08 111.23 52.08 111.91 52.08 C112.61 53.07 113.31 54.06 114.04 55.08 C116.24 57.74 116.86 58.07 120.41 59.02 C125.32 58.64 128.71 55.71 132.56 52.86 C142.01 45.93 152.58 41.02 163.91 38.08 C165.37 37.59 166.83 37.09 168.29 36.58 C178.16 33.25 188.12 30.94 198.55 30.88 C199.65 30.87 199.65 30.87 200.76 30.86 C202.3 30.85 203.84 30.85 205.38 30.84 C207.68 30.83 209.97 30.8 212.27 30.77 C225.86 30.67 239.15 32.13 251.91 37.08 C253.32 37.57 254.72 38.06 256.13 38.55 C272.99 44.72 287.19 53.59 300.91 65.08 C301.78 65.8 302.66 66.52 303.55 67.26 C307.56 70.64 307.56 70.64 308.91 72.08 C308.91 72.74 308.91 73.4 308.91 74.08 C309.9 74.41 310.89 74.74 311.91 75.08 C313.95 77.3 313.95 77.3 316.1 80.02 C316.81 80.92 317.53 81.81 318.27 82.73 C319.91 85.08 319.91 85.08 319.91 87.08 C320.57 87.08 321.23 87.08 321.91 87.08 C323.19 88.87 324.39 90.71 325.54 92.58 C326.48 94.11 326.48 94.11 327.45 95.68 C328.17 96.87 328.17 96.87 328.91 98.08 C332.46 97.44 335.4 96.44 338.7 94.97 C342.63 93.39 346.71 92.27 350.77 91.05 C353.91 90.08 356.96 88.98 360.02 87.8 C365.53 85.71 371.09 83.98 376.82 82.61 C379.19 82.01 381.51 81.3 383.85 80.58 C387.71 79.41 391.56 78.45 395.51 77.61 C398.27 77 400.99 76.29 403.72 75.58 C408.65 74.34 413.56 73.4 418.59 72.62 C421.05 72.22 423.5 71.79 425.95 71.33 C433.74 69.87 441.34 68.77 449.26 68.35 C452.78 68.09 456.2 67.63 459.69 67.1 C468.54 65.85 477.36 65.58 486.29 65.39 C487.12 65.37 487.96 65.36 488.82 65.34 C500.86 65.06 512.88 65.05 524.91 65.39 C526.85 65.45 526.85 65.45 528.84 65.5 C536.49 65.77 543.94 66.51 551.5 67.63 C554.88 68.08 558.2 68.31 561.6 68.46 C568.45 68.88 575.02 70.17 581.72 71.62 C585.68 72.47 589.56 73.2 593.6 73.59 C597.43 73.97 600.91 74.81 604.6 75.96 C610.63 77.76 616.67 79.16 622.85 80.37 C625.71 81.04 628.2 81.98 630.91 83.08 C633.95 83.88 637.01 84.59 640.07 85.3 C642.6 86 644.61 86.86 646.91 88.08 C648.49 88.55 650.07 89.02 651.66 89.46 C666.05 93.45 666.05 93.45 671.41 96.39 C674.62 98.22 674.62 98.22 677.27 98.19 C681.5 96.41 683.22 92.81 685.6 89.02 C686.55 87.52 687.52 86.03 688.48 84.55 C689.11 83.55 689.11 83.55 689.75 82.53 C690.13 82.06 690.52 81.58 690.91 81.08 C691.57 81.08 692.23 81.08 692.91 81.08 C693.16 80.53 693.41 79.97 693.66 79.39 C704.11 60.06 732.46 44.59 752.55 37.86 C755.99 36.86 759.44 35.95 762.91 35.08 C764.01 34.79 765.11 34.51 766.24 34.21 C773.83 32.26 780.95 30.93 788.81 30.88 C789.94 30.87 789.94 30.87 791.09 30.86 C792.68 30.85 794.27 30.85 795.86 30.84 C798.24 30.83 800.62 30.8 803 30.77 C827.54 30.6 848.09 38.65 869.91 49.08 C869.91 49.74 869.91 50.4 869.91 51.08 C870.43 51.16 870.94 51.25 871.47 51.33 C873.91 52.08 873.91 52.08 876.85 54.14 C882.03 57.29 888.07 56.4 893.91 56.08 C893.91 55.42 893.91 54.76 893.91 54.08 C894.57 54.08 895.23 54.08 895.91 54.08 C895.91 53.42 895.91 52.76 895.91 52.08 C896.57 52.08 897.23 52.08 897.91 52.08 C898.31 51.21 898.31 51.21 898.72 50.32 C899.92 48.05 901.25 46.28 902.91 44.33 C903.43 43.72 903.94 43.1 904.47 42.47 C905.91 41.08 905.91 41.08 907.91 41.08 C907.91 40.42 907.91 39.76 907.91 39.08 C913.39 34.08 913.39 34.08 915.91 34.08 C916.24 33.09 916.57 32.1 916.91 31.08 C918.47 29.7 918.47 29.7 920.35 28.39 C921.27 27.74 921.27 27.74 922.22 27.07 C923.91 26.08 923.91 26.08 925.91 26.08 C925.91 25.42 925.91 24.76 925.91 24.08 C926.9 24.08 927.89 24.08 928.91 24.08 C928.91 23.42 928.91 22.76 928.91 22.08 C940.65 15.18 951.89 9.38 965.14 5.88 C967.8 5.36 967.8 5.36 968.91 4.08 C970.48 3.71 972.07 3.38 973.66 3.08 C974.95 2.83 974.95 2.83 976.27 2.58 C977.14 2.42 978.01 2.25 978.91 2.08 C980.09 1.82 980.09 1.82 981.3 1.55 C1012.89 -4.16 1044.78 2.56 1072.91 17.08 C1074.24 17.75 1075.58 18.42 1076.91 19.08 C1076.91 19.74 1076.91 20.4 1076.91 21.08 C1077.49 21.21 1078.07 21.33 1078.66 21.46 C1080.93 22.09 1082.84 22.97 1084.91 24.08 C1084.91 24.74 1084.91 25.4 1084.91 26.08 C1086.23 26.41 1087.55 26.74 1088.91 27.08 C1088.91 27.74 1088.91 28.4 1088.91 29.08 C1089.59 29.27 1090.27 29.45 1090.97 29.64 C1094.45 31.35 1096.5 33.5 1099.15 36.29 C1100.71 37.88 1102.29 39.26 1104.04 40.64 C1107.14 43.28 1109.46 45.84 1111.91 49.08 C1111.91 49.74 1111.91 50.4 1111.91 51.08 C1112.57 51.08 1113.23 51.08 1113.91 51.08 C1115.73 53.46 1117.43 55.84 1119.1 58.33 C1119.59 59.07 1120.09 59.8 1120.6 60.56 C1122.05 62.73 1123.48 64.9 1124.91 67.08 C1125.57 68.07 1126.23 69.06 1126.91 70.08 C1134.29 81.84 1141.33 97.94 1142.47 111.96 C1142.52 114.82 1142.52 114.82 1143.91 117.08 C1144.01 118.52 1144.04 119.96 1144.04 121.4 C1144.04 122.78 1144.04 122.78 1144.05 124.18 C1144.05 125.18 1144.05 126.18 1144.04 127.21 C1144.04 128.22 1144.04 129.24 1144.05 130.29 C1144.05 132.44 1144.04 134.6 1144.04 136.76 C1144.04 140.07 1144.04 143.38 1144.05 146.69 C1144.05 148.78 1144.04 150.87 1144.04 152.96 C1144.05 154.45 1144.05 154.45 1144.05 155.98 C1144.05 156.9 1144.04 157.82 1144.04 158.76 C1144.04 159.98 1144.04 159.98 1144.04 161.22 C1143.91 163.08 1143.91 163.08 1142.91 164.08 C1142.75 165.41 1142.63 166.75 1142.54 168.08 C1142.02 173.09 1140.63 177.38 1138.91 182.08 C1138.38 183.66 1138.38 183.66 1137.85 185.27 C1134.89 193.98 1131.2 201.95 1126.91 210.08 C1126.25 210.08 1125.59 210.08 1124.91 210.08 C1124.72 210.95 1124.72 210.95 1124.54 211.83 C1123.9 214.11 1123.02 216.01 1121.91 218.08 C1121.25 218.08 1120.59 218.08 1119.91 218.08 C1119.45 219.26 1119.45 219.26 1118.97 220.46 C1117.91 223.08 1117.91 223.08 1116.91 225.08 C1116.25 225.08 1115.59 225.08 1114.91 225.08 C1114.64 225.66 1114.38 226.25 1114.11 226.85 C1109.84 234.82 1101.38 243.06 1093.91 248.08 C1093.25 248.08 1092.59 248.08 1091.91 248.08 C1091.91 248.74 1091.91 249.4 1091.91 250.08 C1090.01 251.7 1090.01 251.7 1087.54 253.52 C1082.81 256.83 1082.81 256.83 1080.57 261.99 C1080.48 267.35 1081.57 271.1 1083.7 275.97 C1093.22 300.38 1094.13 326.65 1088.91 352.08 C1088.66 353.45 1088.66 353.45 1088.41 354.85 C1087.3 360.56 1085.16 365.73 1082.91 371.08 C1082.26 372.75 1081.62 374.41 1080.97 376.08 C1077.63 384.43 1073.34 392.27 1068.91 400.08 C1068.25 400.08 1067.59 400.08 1066.91 400.08 C1066.7 400.74 1066.5 401.4 1066.29 402.08 C1064.42 406.15 1061.93 409.77 1058.91 413.08 C1058.25 413.08 1057.59 413.08 1056.91 413.08 C1056.68 413.62 1056.46 414.15 1056.22 414.71 C1053.17 420.24 1048.9 424.31 1043.91 428.08 C1043.25 428.08 1042.59 428.08 1041.91 428.08 C1041.91 428.74 1041.91 429.4 1041.91 430.08 C1039.93 431.8 1037.94 433.38 1035.85 434.96 C1035.29 435.39 1034.72 435.83 1034.15 436.27 C1028.93 440.24 1023.57 444.27 1016.91 445.08 C1016.91 445.74 1016.91 446.4 1016.91 447.08 C1015.22 447.85 1013.54 448.62 1011.85 449.39 C1010.44 450.04 1010.44 450.04 1009 450.7 C1003 453.39 997.1 455.8 990.79 457.64 C990.05 457.86 989.31 458.08 988.55 458.3 C982.94 459.9 977.35 460.98 971.55 461.72 C969.26 462.03 967.14 462.5 964.91 463.08 C965.05 466 965.2 468.92 965.35 471.83 C965.39 472.66 965.43 473.48 965.47 474.33 C965.51 475.13 965.55 475.93 965.59 476.75 C965.63 477.49 965.67 478.22 965.7 478.98 C965.86 481.08 965.86 481.08 966.41 483.05 C967.46 487.3 967.31 491.78 967.47 496.14 C967.51 497.28 967.56 498.41 967.6 499.58 C969.83 567.34 969.83 567.34 963.34 597.69 C962.87 600.32 962.62 602.92 962.41 605.58 C961.91 611.82 961.01 617.94 958.94 623.87 C957.53 628.26 956.82 632.72 956.05 637.25 C955.38 641.09 954.43 644.49 952.91 648.08 C952.77 649.15 952.62 650.23 952.47 651.33 C951.94 654.9 951.05 657.9 949.86 661.29 C949.11 663.51 948.39 665.73 947.71 667.97 C947.39 669.01 947.39 669.01 947.06 670.08 C946.64 671.46 946.22 672.85 945.8 674.23 C944.44 678.66 942.75 682.83 940.91 687.08 C940.28 688.95 939.68 690.82 939.1 692.71 C936.56 700.47 933.45 708.27 928.91 715.08 C928.25 715.08 927.59 715.08 926.91 715.08 C926.91 715.74 926.91 716.4 926.91 717.08 C922.4 720.97 916.63 721.05 910.91 721.08 C908.57 720.6 908.57 720.6 906.91 720.08 C906.25 721.4 905.59 722.72 904.91 724.08 C904.58 723.42 904.25 722.76 903.91 722.08 C903.58 722.41 903.25 722.74 902.91 723.08 C902.97 724.16 902.97 724.16 903.04 725.27 C902.88 728.79 901.61 731.04 899.91 734.08 C899.25 734.08 898.59 734.08 897.91 734.08 C897.72 735.16 897.72 735.16 897.54 736.27 C896.5 740.91 895.24 743.75 891.91 747.08 C890.72 749.68 890.72 749.68 889.91 752.08 C889.25 752.08 888.59 752.08 887.91 752.08 C887.72 753.16 887.72 753.16 887.54 754.27 C886.51 758.87 885.93 761.41 881.91 764.08 C881.23 765.74 880.56 767.41 879.91 769.08 C878.91 770.08 877.91 771.08 876.91 772.08 C875.51 774.46 875.51 774.46 874.91 777.08 C875.68 779.37 875.68 779.37 876.91 781.08 C877.57 781.08 878.23 781.08 878.91 781.08 C882.47 786.56 883.05 791.75 881.91 798.08 C878.49 806.11 872.95 813.8 866.91 820.08 C866.25 820.08 865.59 820.08 864.91 820.08 C864.66 820.62 864.42 821.15 864.16 821.71 C862.6 824.66 860.88 827.38 858.91 830.08 C858.25 830.08 857.59 830.08 856.91 830.08 C856.64 830.66 856.37 831.24 856.1 831.83 C854.88 834.14 853.61 836.1 851.91 838.08 C851.25 838.08 850.59 838.08 849.91 838.08 C849.54 838.94 849.54 838.94 849.16 839.82 C847.71 842.44 846.01 844.15 843.85 846.21 C840.99 848.86 840.99 848.86 838.91 852.08 C838.25 852.08 837.59 852.08 836.91 852.08 C836.58 853.07 836.25 854.06 835.91 855.08 C835.25 855.08 834.59 855.08 833.91 855.08 C833.91 855.74 833.91 856.4 833.91 857.08 C833.25 857.08 832.59 857.08 831.91 857.08 C831.58 858.07 831.25 859.06 830.91 860.08 C830.25 860.08 829.59 860.08 828.91 860.08 C828.91 860.74 828.91 861.4 828.91 862.08 C828.25 862.08 827.59 862.08 826.91 862.08 C826.58 863.07 826.25 864.06 825.91 865.08 C825.25 865.08 824.59 865.08 823.91 865.08 C823.91 865.74 823.91 866.4 823.91 867.08 C822.45 868.59 822.45 868.59 820.54 870.21 C819.6 871.02 819.6 871.02 818.64 871.84 C816.91 873.08 816.91 873.08 814.91 873.08 C814.91 873.74 814.91 874.4 814.91 875.08 C809.43 880.08 809.43 880.08 806.91 880.08 C806.58 881.07 806.25 882.06 805.91 883.08 C803.91 884.91 803.91 884.91 801.47 886.77 C800.67 887.39 799.87 888.01 799.04 888.66 C796.91 890.08 796.91 890.08 794.91 890.08 C794.91 890.74 794.91 891.4 794.91 892.08 C791.45 895.08 791.45 895.08 788.91 895.08 C788.91 895.74 788.91 896.4 788.91 897.08 C787.59 897.41 786.27 897.74 784.91 898.08 C784.91 898.74 784.91 899.4 784.91 900.08 C782.47 901.99 780.02 903.77 777.47 905.52 C776.72 906.05 775.96 906.57 775.18 907.11 C769.66 910.93 764.09 914.66 758.47 918.33 C757.75 918.81 757.02 919.29 756.27 919.78 C751.15 923.08 751.15 923.08 748.91 923.08 C748.91 923.74 748.91 924.4 748.91 925.08 C747.48 925.92 746.04 926.75 744.6 927.58 C743.8 928.05 743 928.51 742.17 928.99 C739.91 930.08 739.91 930.08 736.91 930.08 C736.91 930.74 736.91 931.4 736.91 932.08 C735.26 932.41 733.61 932.74 731.91 933.08 C731.91 933.74 731.91 934.4 731.91 935.08 C730.91 935.58 730.91 935.58 729.88 936.08 C724.37 938.81 718.91 941.61 713.49 944.52 C707.43 947.78 701.47 950.86 695.01 953.27 C693.01 954.04 691.18 954.95 689.29 955.96 C683.45 958.96 677.2 961.04 671.05 963.29 C668.96 964.06 666.88 964.86 664.81 965.66 C657.29 968.56 649.81 971.09 642.03 973.21 C639.34 973.96 636.73 974.79 634.1 975.71 C630.34 977.01 626.56 977.88 622.66 978.65 C620.89 978.93 620.89 978.93 619.91 980.08 C617.85 980.56 615.78 981.04 613.71 981.48 C610.6 982.15 607.51 982.9 604.41 983.64 C599.89 984.7 595.5 985.42 590.88 985.84 C587.79 986.22 584.89 987.22 581.91 988.08 C574.44 989.63 567.03 990.34 559.43 990.8 C556.16 991.06 553.02 991.53 549.79 992.08 C537.94 993.88 525.87 993.81 513.91 994.08 C512.75 994.11 512.75 994.11 511.57 994.14 C507.02 994.23 502.47 994.18 497.91 994.08 C496.78 994.06 495.64 994.04 494.47 994.01 C491.12 993.94 487.76 993.85 484.41 993.76 C482.42 993.71 480.43 993.66 478.44 993.61 C470.62 993.37 463.04 992.69 455.32 991.54 C451.89 991.08 448.49 990.83 445.04 990.64 C439.5 990.3 434.12 989.55 428.66 988.58 C427.92 988.45 427.18 988.32 426.42 988.19 C421.19 987.22 421.19 987.22 418.91 986.08 C416.32 985.77 413.73 985.57 411.12 985.36 C408.91 985.08 408.91 985.08 407.91 984.08 C406.08 983.71 404.25 983.39 402.41 983.08 C397.02 982.19 397.02 982.19 395.91 981.08 C394.56 980.77 393.21 980.51 391.85 980.27 C381.81 978.33 371.82 976.14 362.41 972.09 C359.39 970.87 356.34 969.95 353.22 969.02 C348.6 967.63 344.29 966.1 339.91 964.08 C336.2 962.43 332.53 960.93 328.66 959.71 C325.26 958.6 322.05 957.3 318.8 955.8 C317.84 955.36 316.87 954.92 315.88 954.46 C314.41 953.78 314.41 953.78 312.91 953.08 C312 952.66 311.09 952.24 310.15 951.81 C297.11 945.73 284.35 939.32 271.91 932.08 C271.23 931.69 270.55 931.29 269.85 930.89 C262.64 926.69 255.6 922.34 248.86 917.39 C246.84 915.91 246.84 915.91 243.91 915.08 C243.91 914.42 243.91 913.76 243.91 913.08 C243.21 912.83 242.51 912.59 241.79 912.33 C238.52 910.91 235.77 909.21 232.91 907.08 C232.91 906.42 232.91 905.76 232.91 905.08 C232.01 904.9 232.01 904.9 231.1 904.71 C228.91 904.08 228.91 904.08 225.91 902.08 C225.91 901.42 225.91 900.76 225.91 900.08 C224.85 899.73 224.85 899.73 223.77 899.38 C220.34 897.82 217.95 895.8 215.1 893.33 C210.94 889.76 206.73 886.38 202.24 883.24 C201.8 882.86 201.36 882.48 200.91 882.08 C200.91 881.42 200.91 880.76 200.91 880.08 C200.33 879.81 199.76 879.55 199.16 879.27 C196.85 878.05 194.89 876.78 192.91 875.08 C192.91 874.42 192.91 873.76 192.91 873.08 C192.27 872.81 191.63 872.55 190.97 872.27 C188.91 871.08 188.91 871.08 187.91 868.08 C186.58 867.41 185.25 866.74 183.91 866.08 C182.2 864.56 180.55 862.98 178.93 861.36 C177.99 860.43 177.06 859.5 176.09 858.54 C175.61 858.05 175.13 857.57 174.64 857.07 C173.16 855.58 171.67 854.1 170.18 852.62 C169.25 851.69 168.32 850.76 167.36 849.8 C166.51 848.94 165.65 848.09 164.77 847.21 C162.91 845.08 162.91 845.08 162.91 843.08 C162.25 843.08 161.59 843.08 160.91 843.08 C155.91 837.61 155.91 837.61 155.91 835.08 C155.25 835.08 154.59 835.08 153.91 835.08 C152.32 833.51 152.32 833.51 150.54 831.39 C149.92 830.67 149.3 829.94 148.66 829.19 C148.09 828.49 147.51 827.8 146.91 827.08 C145.7 825.66 145.7 825.66 144.47 824.21 C142.91 822.08 142.91 822.08 142.91 820.08 C142.25 820.08 141.59 820.08 140.91 820.08 C139.46 818.35 138.1 816.54 136.79 814.71 C136.06 813.71 135.34 812.71 134.59 811.68 C132.91 809.08 132.91 809.08 132.91 807.08 C132.25 807.08 131.59 807.08 130.91 807.08 C127.91 802.7 127.91 802.7 127.91 800.08 C127.25 800.08 126.59 800.08 125.91 800.08 C122.91 795.7 122.91 795.7 122.91 793.08 C122.25 793.08 121.59 793.08 120.91 793.08 C120.91 792.09 120.91 791.1 120.91 790.08 C120.25 790.08 119.59 790.08 118.91 790.08 C117.78 788.68 117.78 788.68 116.56 786.72 C116.12 786.02 115.68 785.32 115.23 784.59 C114.77 783.84 114.32 783.1 113.85 782.33 C113.39 781.6 112.93 780.87 112.46 780.12 C110.38 776.78 108.71 773.97 107.91 770.08 C107.25 770.08 106.59 770.08 105.91 770.08 C105.35 768.92 105.35 768.92 104.77 767.74 C104.26 766.7 103.75 765.66 103.22 764.58 C102.72 763.56 102.22 762.54 101.71 761.49 C100 758.25 98.13 755.2 96.17 752.11 C89.73 741.74 84.68 730.64 80 719.39 C78.4 715.52 76.76 711.71 74.84 707.98 C72.81 704.01 71.33 699.93 69.91 695.71 C68.3 691.03 66.69 686.4 64.79 681.83 C61.06 672.68 58.57 663.15 56.3 653.55 C55.65 650.82 54.96 648.21 53.89 645.61 C52.57 642.21 52.02 638.72 51.41 635.14 C50.78 631.42 50.16 627.8 48.91 624.22 C47.51 619.82 47 615.4 46.41 610.83 C45.59 604.62 44.64 598.49 43.37 592.35 C35.91 555.52 36.96 509.34 42.51 472.25 C42.9 469.16 42.98 466.2 42.91 463.08 C38.58 462.03 34.36 461.07 29.91 460.77 C19.59 459.75 8.93 456.09 -0.09 451.08 C-1.17 450.63 -2.25 450.18 -3.36 449.71 C-7.15 448.11 -10.66 446.16 -14.21 444.08 C-14.81 443.74 -15.4 443.4 -16.02 443.04 C-17.71 442.06 -19.4 441.07 -21.09 440.08 C-22.06 439.55 -23.02 439.01 -24.02 438.46 C-25.04 437.78 -25.04 437.78 -26.09 437.08 C-26.09 436.42 -26.09 435.76 -26.09 435.08 C-26.96 434.74 -26.96 434.74 -27.84 434.39 C-31.32 432.36 -33.62 429.78 -34.71 425.86 C-35.33 421.36 -35 416.89 -34.83 412.36 C-35.11 408.78 -35.83 407.74 -38.09 405.08 C-38.09 404.09 -38.09 403.1 -38.09 402.08 C-38.75 402.08 -39.41 402.08 -40.09 402.08 C-44.08 396.52 -47.16 390.25 -50.09 384.08 C-50.54 383.18 -50.99 382.29 -51.46 381.36 C-58.7 366.49 -64.63 349.77 -64.09 333.08 C-65.3 333.02 -65.3 333.02 -66.53 332.96 C-72.42 331.51 -77.4 328.3 -81.09 323.46 C-87.11 309.17 -81.08 290.05 -76.09 276.08 C-75.56 274.85 -75.01 273.62 -74.46 272.4 C-72.58 267.84 -72.21 263.94 -73.09 259.08 C-75.53 255.79 -77.99 254.15 -81.4 251.89 C-82.29 251.3 -83.18 250.7 -84.09 250.08 C-84.09 249.42 -84.09 248.76 -84.09 248.08 C-84.67 247.82 -85.26 247.55 -85.86 247.28 C-93.82 243.01 -102.07 234.55 -107.09 227.08 C-107.09 226.42 -107.09 225.76 -107.09 225.08 C-107.75 225.08 -108.41 225.08 -109.09 225.08 C-110.38 223.66 -110.38 223.66 -111.71 221.77 C-112.16 221.15 -112.61 220.54 -113.07 219.91 C-114.09 218.08 -114.09 218.08 -114.09 215.08 C-114.75 215.08 -115.41 215.08 -116.09 215.08 C-123.2 202.01 -129.35 189.58 -133.09 175.08 C-133.34 174.32 -133.6 173.56 -133.86 172.78 C-136.82 163.06 -136.54 153.25 -136.48 143.18 C-136.46 140.09 -136.48 137 -136.5 133.9 C-136.51 123.88 -136.29 114.68 -133.09 105.08 C-132.77 103.84 -132.46 102.59 -132.13 101.3 C-129.91 93.11 -126.92 85.66 -123.09 78.08 C-122.43 76.75 -122.43 76.75 -121.76 75.39 C-118.69 69.45 -115.08 63.92 -111.34 58.39 C-110.86 57.67 -110.37 56.95 -109.87 56.21 C-108.67 54.46 -107.38 52.77 -106.09 51.08 C-105.43 51.08 -104.77 51.08 -104.09 51.08 C-103.82 50.5 -103.56 49.92 -103.29 49.32 C-98.93 41.16 -90.62 34.28 -83.09 29.08 C-82.43 29.08 -81.77 29.08 -81.09 29.08 C-81.09 28.42 -81.09 27.76 -81.09 27.08 C-79.77 26.75 -78.45 26.42 -77.09 26.08 C-77.09 25.42 -77.09 24.76 -77.09 24.08 C-74.18 22.04 -72.69 21.08 -69.09 21.08 C-69.09 20.42 -69.09 19.76 -69.09 19.08 C-63.59 15.77 -58.15 13.21 -52.06 11.17 C-49.59 10.26 -47.29 9.25 -44.91 8.13 C-39.89 5.87 -34.83 4.57 -29.46 3.39 C-28.5 3.18 -27.54 2.97 -26.55 2.75 C-17.65 0.85 -9.09 0.24 0 0 Z M897.91 731.08 C898.91 733.08 898.91 733.08 898.91 733.08 Z M892.91 740.08 C892.25 741.4 891.59 742.72 890.91 744.08 C891.9 743.75 892.89 743.42 893.91 743.08 C893.58 742.09 893.25 741.1 892.91 740.08 Z M889.91 744.08 C890.91 746.08 890.91 746.08 890.91 746.08 Z M887.91 747.08 C887.91 748.07 887.91 749.06 887.91 750.08 C886.92 750.58 886.92 750.58 885.91 751.08 C886.9 751.08 887.89 751.08 888.91 751.08 C889.24 749.76 889.57 748.44 889.91 747.08 C889.25 747.08 888.59 747.08 887.91 747.08 Z M880.91 759.08 C880.91 760.07 880.91 761.06 880.91 762.08 C881.57 761.75 882.23 761.42 882.91 761.08 C882.25 760.42 881.59 759.76 880.91 759.08 Z M882.91 759.08 C883.91 761.08 883.91 761.08 883.91 761.08 Z M876.91 765.08 C876.58 766.4 876.25 767.72 875.91 769.08 C876.9 768.75 877.89 768.42 878.91 768.08 C878.58 767.09 878.25 766.1 877.91 765.08 C877.58 765.08 877.25 765.08 876.91 765.08 Z " fill="#E8EFF6" transform="translate(136.08984375,142.91796875)"/>
<path d="M0 0 C27.12 -0.39 50.02 7.08 73.91 19.08 C73.91 19.74 73.91 20.4 73.91 21.08 C74.5 21.2 75.09 21.32 75.69 21.44 C79.35 22.5 82.11 24.81 85.16 27.02 C85.81 27.48 86.46 27.93 87.13 28.4 C88.76 29.57 90.34 30.82 91.91 32.08 C91.91 32.74 91.91 33.4 91.91 34.08 C92.49 34.35 93.07 34.62 93.66 34.89 C95.97 36.11 97.93 37.39 99.91 39.08 C99.91 39.74 99.91 40.4 99.91 41.08 C100.57 41.08 101.23 41.08 101.91 41.08 C103.6 42.73 103.6 42.73 105.47 44.89 C106.09 45.6 106.71 46.31 107.35 47.04 C108.91 49.08 108.91 49.08 109.91 52.08 C110.57 52.08 111.23 52.08 111.91 52.08 C112.61 53.07 113.31 54.06 114.04 55.08 C116.24 57.74 116.86 58.07 120.41 59.02 C125.32 58.64 128.71 55.71 132.56 52.86 C142.01 45.93 152.58 41.02 163.91 38.08 C165.37 37.59 166.83 37.09 168.29 36.58 C178.16 33.25 188.12 30.94 198.55 30.88 C199.65 30.87 199.65 30.87 200.76 30.86 C202.3 30.85 203.84 30.85 205.38 30.84 C207.68 30.83 209.97 30.8 212.27 30.77 C225.86 30.67 239.15 32.13 251.91 37.08 C253.32 37.57 254.72 38.06 256.13 38.55 C272.99 44.72 287.19 53.59 300.91 65.08 C301.78 65.8 302.66 66.52 303.55 67.26 C307.56 70.64 307.56 70.64 308.91 72.08 C308.91 72.74 308.91 73.4 308.91 74.08 C309.9 74.41 310.89 74.74 311.91 75.08 C313.95 77.3 313.95 77.3 316.1 80.02 C316.81 80.92 317.53 81.81 318.27 82.73 C319.91 85.08 319.91 85.08 319.91 87.08 C320.57 87.08 321.23 87.08 321.91 87.08 C323.19 88.87 324.39 90.71 325.54 92.58 C326.48 94.11 326.48 94.11 327.45 95.68 C328.17 96.87 328.17 96.87 328.91 98.08 C332.46 97.44 335.4 96.44 338.7 94.97 C342.63 93.39 346.71 92.27 350.77 91.05 C353.91 90.08 356.96 88.98 360.02 87.8 C365.53 85.71 371.09 83.98 376.82 82.61 C379.19 82.01 381.51 81.3 383.85 80.58 C387.71 79.41 391.56 78.45 395.51 77.61 C398.27 77 400.99 76.29 403.72 75.58 C408.65 74.34 413.56 73.4 418.59 72.62 C421.05 72.22 423.5 71.79 425.95 71.33 C433.74 69.87 441.34 68.77 449.26 68.35 C452.78 68.09 456.2 67.63 459.69 67.1 C468.54 65.85 477.36 65.58 486.29 65.39 C487.12 65.37 487.96 65.36 488.82 65.34 C500.86 65.06 512.88 65.05 524.91 65.39 C526.85 65.45 526.85 65.45 528.84 65.5 C536.49 65.77 543.94 66.51 551.5 67.63 C554.88 68.08 558.2 68.31 561.6 68.46 C568.45 68.88 575.02 70.17 581.72 71.62 C585.68 72.47 589.56 73.2 593.6 73.59 C597.43 73.97 600.91 74.81 604.6 75.96 C610.63 77.76 616.67 79.16 622.85 80.37 C625.71 81.04 628.2 81.98 630.91 83.08 C633.95 83.88 637.01 84.59 640.07 85.3 C642.6 86 644.61 86.86 646.91 88.08 C648.49 88.55 650.07 89.02 651.66 89.46 C666.05 93.45 666.05 93.45 671.41 96.39 C674.62 98.22 674.62 98.22 677.27 98.19 C681.5 96.41 683.22 92.81 685.6 89.02 C686.55 87.52 687.52 86.03 688.48 84.55 C689.11 83.55 689.11 83.55 689.75 82.53 C690.13 82.06 690.52 81.58 690.91 81.08 C691.57 81.08 692.23 81.08 692.91 81.08 C693.16 80.53 693.41 79.97 693.66 79.39 C704.11 60.06 732.46 44.59 752.55 37.86 C755.99 36.86 759.44 35.95 762.91 35.08 C764.01 34.79 765.11 34.51 766.24 34.21 C773.83 32.26 780.95 30.93 788.81 30.88 C789.94 30.87 789.94 30.87 791.09 30.86 C792.68 30.85 794.27 30.85 795.86 30.84 C798.24 30.83 800.62 30.8 803 30.77 C827.54 30.6 848.09 38.65 869.91 49.08 C869.91 49.74 869.91 50.4 869.91 51.08 C870.43 51.16 870.94 51.25 871.47 51.33 C873.91 52.08 873.91 52.08 876.85 54.14 C882.03 57.29 888.07 56.4 893.91 56.08 C893.91 55.42 893.91 54.76 893.91 54.08 C894.57 54.08 895.23 54.08 895.91 54.08 C895.91 53.42 895.91 52.76 895.91 52.08 C896.57 52.08 897.23 52.08 897.91 52.08 C898.31 51.21 898.31 51.21 898.72 50.32 C899.92 48.05 901.25 46.28 902.91 44.33 C903.43 43.72 903.94 43.1 904.47 42.47 C905.91 41.08 905.91 41.08 907.91 41.08 C907.91 40.42 907.91 39.76 907.91 39.08 C913.39 34.08 913.39 34.08 915.91 34.08 C916.24 33.09 916.57 32.1 916.91 31.08 C918.47 29.7 918.47 29.7 920.35 28.39 C921.27 27.74 921.27 27.74 922.22 27.07 C923.91 26.08 923.91 26.08 925.91 26.08 C925.91 25.42 925.91 24.76 925.91 24.08 C926.9 24.08 927.89 24.08 928.91 24.08 C928.91 23.42 928.91 22.76 928.91 22.08 C940.65 15.18 951.89 9.38 965.14 5.88 C967.8 5.36 967.8 5.36 968.91 4.08 C970.48 3.71 972.07 3.38 973.66 3.08 C974.95 2.83 974.95 2.83 976.27 2.58 C977.14 2.42 978.01 2.25 978.91 2.08 C980.09 1.82 980.09 1.82 981.3 1.55 C1012.89 -4.16 1044.78 2.56 1072.91 17.08 C1074.24 17.75 1075.58 18.42 1076.91 19.08 C1076.91 19.74 1076.91 20.4 1076.91 21.08 C1077.49 21.21 1078.07 21.33 1078.66 21.46 C1080.93 22.09 1082.84 22.97 1084.91 24.08 C1084.91 24.74 1084.91 25.4 1084.91 26.08 C1086.23 26.41 1087.55 26.74 1088.91 27.08 C1088.91 27.74 1088.91 28.4 1088.91 29.08 C1089.59 29.27 1090.27 29.45 1090.97 29.64 C1094.45 31.35 1096.5 33.5 1099.15 36.29 C1100.71 37.88 1102.29 39.26 1104.04 40.64 C1107.14 43.28 1109.46 45.84 1111.91 49.08 C1111.91 49.74 1111.91 50.4 1111.91 51.08 C1112.57 51.08 1113.23 51.08 1113.91 51.08 C1115.73 53.46 1117.43 55.84 1119.1 58.33 C1119.59 59.07 1120.09 59.8 1120.6 60.56 C1122.05 62.73 1123.48 64.9 1124.91 67.08 C1125.57 68.07 1126.23 69.06 1126.91 70.08 C1134.29 81.84 1141.33 97.94 1142.47 111.96 C1142.52 114.82 1142.52 114.82 1143.91 117.08 C1144.01 118.52 1144.04 119.96 1144.04 121.4 C1144.04 122.78 1144.04 122.78 1144.05 124.18 C1144.05 125.18 1144.05 126.18 1144.04 127.21 C1144.04 128.22 1144.04 129.24 1144.05 130.29 C1144.05 132.44 1144.04 134.6 1144.04 136.76 C1144.04 140.07 1144.04 143.38 1144.05 146.69 C1144.05 148.78 1144.04 150.87 1144.04 152.96 C1144.05 154.45 1144.05 154.45 1144.05 155.98 C1144.05 156.9 1144.04 157.82 1144.04 158.76 C1144.04 159.98 1144.04 159.98 1144.04 161.22 C1143.91 163.08 1143.91 163.08 1142.91 164.08 C1142.75 165.41 1142.63 166.75 1142.54 168.08 C1142.02 173.09 1140.63 177.38 1138.91 182.08 C1138.38 183.66 1138.38 183.66 1137.85 185.27 C1134.89 193.98 1131.2 201.95 1126.91 210.08 C1126.25 210.08 1125.59 210.08 1124.91 210.08 C1124.72 210.95 1124.72 210.95 1124.54 211.83 C1123.9 214.11 1123.02 216.01 1121.91 218.08 C1121.25 218.08 1120.59 218.08 1119.91 218.08 C1119.45 219.26 1119.45 219.26 1118.97 220.46 C1117.91 223.08 1117.91 223.08 1116.91 225.08 C1116.25 225.08 1115.59 225.08 1114.91 225.08 C1114.64 225.66 1114.38 226.25 1114.11 226.85 C1109.84 234.82 1101.38 243.06 1093.91 248.08 C1093.25 248.08 1092.59 248.08 1091.91 248.08 C1091.91 248.74 1091.91 249.4 1091.91 250.08 C1090.01 251.7 1090.01 251.7 1087.54 253.52 C1082.81 256.83 1082.81 256.83 1080.57 261.99 C1080.48 267.35 1081.57 271.1 1083.7 275.97 C1093.22 300.38 1094.13 326.65 1088.91 352.08 C1088.66 353.45 1088.66 353.45 1088.41 354.85 C1087.3 360.56 1085.16 365.73 1082.91 371.08 C1082.26 372.75 1081.62 374.41 1080.97 376.08 C1077.63 384.43 1073.34 392.27 1068.91 400.08 C1068.25 400.08 1067.59 400.08 1066.91 400.08 C1066.7 400.74 1066.5 401.4 1066.29 402.08 C1064.42 406.15 1061.93 409.77 1058.91 413.08 C1058.25 413.08 1057.59 413.08 1056.91 413.08 C1056.68 413.62 1056.46 414.15 1056.22 414.71 C1053.17 420.24 1048.9 424.31 1043.91 428.08 C1043.25 428.08 1042.59 428.08 1041.91 428.08 C1041.91 428.74 1041.91 429.4 1041.91 430.08 C1039.93 431.8 1037.94 433.38 1035.85 434.96 C1035.29 435.39 1034.72 435.83 1034.15 436.27 C1028.93 440.24 1023.57 444.27 1016.91 445.08 C1016.91 445.74 1016.91 446.4 1016.91 447.08 C1015.22 447.85 1013.54 448.62 1011.85 449.39 C1010.44 450.04 1010.44 450.04 1009 450.7 C1003 453.39 997.1 455.8 990.79 457.64 C990.05 457.86 989.31 458.08 988.55 458.3 C982.94 459.9 977.35 460.98 971.55 461.72 C969.26 462.03 967.14 462.5 964.91 463.08 C965.05 466 965.2 468.92 965.35 471.83 C965.39 472.66 965.43 473.48 965.47 474.33 C965.51 475.13 965.55 475.93 965.59 476.75 C965.63 477.49 965.67 478.22 965.7 478.98 C965.86 481.08 965.86 481.08 966.41 483.05 C967.46 487.3 967.31 491.78 967.47 496.14 C967.51 497.28 967.56 498.41 967.6 499.58 C969.83 567.34 969.83 567.34 963.34 597.69 C962.87 600.32 962.62 602.92 962.41 605.58 C961.91 611.82 961.01 617.94 958.94 623.87 C957.53 628.26 956.82 632.72 956.05 637.25 C955.38 641.09 954.43 644.49 952.91 648.08 C952.77 649.15 952.62 650.23 952.47 651.33 C951.94 654.9 951.05 657.9 949.86 661.29 C949.11 663.51 948.39 665.73 947.71 667.97 C947.39 669.01 947.39 669.01 947.06 670.08 C946.64 671.46 946.22 672.85 945.8 674.23 C944.44 678.66 942.75 682.83 940.91 687.08 C940.28 688.95 939.68 690.82 939.1 692.71 C936.56 700.47 933.45 708.27 928.91 715.08 C928.25 715.08 927.59 715.08 926.91 715.08 C926.91 715.74 926.91 716.4 926.91 717.08 C922.46 720.92 916.58 721.25 910.91 721.08 C908.25 720.16 908.25 720.16 905.91 719.08 C904.92 718.75 903.93 718.42 902.91 718.08 C902.91 717.42 902.91 716.76 902.91 716.08 C902.33 715.9 901.76 715.71 901.16 715.52 C897.93 713.46 896.27 710.59 894.91 707.08 C893.81 702 893.95 698.76 895.72 693.89 C896.05 692.97 896.05 692.97 896.39 692.02 C897.21 689.7 898.06 687.39 898.91 685.08 C919.38 629.29 928.95 573.5 927.91 514.08 C927.89 512.62 927.89 512.62 927.87 511.13 C927.59 495.6 925.42 480.29 923.26 464.94 C922.91 462.08 922.91 462.08 922.91 459.08 C922.25 459.08 921.59 459.08 920.91 459.08 C920.91 458.42 920.91 457.76 920.91 457.08 C919.8 456.99 918.68 456.9 917.54 456.8 C912.37 456.15 907.75 454.46 902.91 452.58 C901.99 452.23 901.07 451.87 900.12 451.51 C882.02 444.31 865.98 433.51 851.91 420.08 C851.32 419.56 850.73 419.03 850.13 418.49 C826.08 396.2 813.78 360.26 812.54 328.19 C812.51 327.18 812.51 327.18 812.47 326.14 C812.21 320.12 811.41 315.37 806.91 311.08 C803.46 308.94 800.38 308.69 796.37 308.41 C795.08 308.3 793.78 308.2 792.45 308.09 C791.77 308.04 791.09 307.99 790.39 307.94 C777.79 306.94 765.85 305.39 753.91 301.08 C753.26 300.86 752.61 300.63 751.95 300.4 C715.98 287.7 688.16 261.04 671.46 227.15 C663.6 209.31 659.74 189.58 659.66 170.14 C659.65 168.8 659.65 168.8 659.65 167.43 C659.71 160.21 660.56 153.29 661.93 146.21 C662.69 142.18 663.27 139 661.91 135.08 C659.77 133.52 659.77 133.52 657.02 132.51 C656.02 132.09 655.02 131.68 653.99 131.26 C652.97 130.87 651.96 130.48 650.91 130.08 C650.03 129.75 649.16 129.41 648.26 129.07 C607.42 114.14 562.73 105.06 519.23 104.88 C518.06 104.87 516.9 104.86 515.69 104.86 C480.19 104.55 480.19 104.55 444.91 108.08 C443.87 108.24 443.87 108.24 442.8 108.41 C419.82 111.95 397.61 117.21 375.39 124.02 C371.6 125.18 367.79 126.3 363.98 127.4 C360.95 128.4 358.12 129.75 355.23 131.1 C351.24 132.79 347.08 133.93 342.91 135.08 C343.12 136.07 343.32 137.07 343.53 138.09 C350.86 174.62 346.07 213.26 325.14 244.74 C321.47 249.94 317.5 254.89 313.41 259.77 C312.77 260.53 312.77 260.53 312.12 261.32 C305.75 268.79 298.83 275.28 290.91 281.08 C290.08 281.69 289.26 282.29 288.41 282.92 C280.95 288.26 273.27 292.37 264.91 296.08 C263.73 296.63 262.55 297.19 261.33 297.75 C246.63 304.41 231.38 307.57 215.33 308.32 C214.57 308.35 213.81 308.39 213.03 308.43 C211.58 308.49 210.12 308.53 208.67 308.57 C204.06 308.74 200.78 309.56 196.91 312.08 C194.92 315.19 194.6 317.84 194.42 321.49 C194.36 322.56 194.29 323.62 194.23 324.71 C194.16 325.85 194.1 326.98 194.04 328.14 C193.28 339.42 191.84 350.16 188.91 361.08 C188.74 361.74 188.56 362.39 188.38 363.07 C179.36 395.82 153.76 426.69 124.47 443.48 C119.73 445.94 114.85 448.03 109.91 450.08 C108.37 450.83 106.82 451.58 105.29 452.33 C99.17 455.03 90.69 458.08 83.91 458.08 C83.79 459.11 83.67 460.14 83.54 461.2 C83.46 461.88 83.38 462.56 83.3 463.26 C83.12 464.79 82.94 466.32 82.76 467.84 C82.31 471.7 81.85 475.55 81.37 479.4 C81.28 480.1 81.19 480.8 81.1 481.53 C80.86 483.45 80.62 485.38 80.38 487.3 C78.89 501.19 78.71 515.13 78.72 529.08 C78.72 529.98 78.72 530.87 78.72 531.8 C78.74 546.31 79.26 560.65 80.91 575.08 C81.01 576.03 81.11 576.97 81.22 577.94 C82.89 593.17 85.61 608.13 88.91 623.08 C89.12 624.04 89.33 625 89.55 625.99 C94.96 650.27 102.92 674.3 112.91 697.08 C113.72 699.1 114.54 701.12 115.35 703.14 C120.09 714.47 125.88 725.27 132.05 735.86 C133.68 738.68 135.21 741.52 136.72 744.39 C146.98 763.25 159.99 780.8 173.91 797.08 C175.52 799.04 177.12 800.99 178.72 802.96 C179.46 803.85 180.19 804.75 180.95 805.68 C182.1 807.09 183.26 808.51 184.41 809.93 C187.07 813.18 189.93 816.12 192.91 819.08 C194.62 820.82 196.33 822.55 198.04 824.29 C199.53 825.79 201.02 827.29 202.51 828.79 C203.52 829.81 204.52 830.83 205.53 831.85 C211.6 838.02 217.75 843.8 224.54 849.19 C226.69 850.91 228.75 852.68 230.79 854.52 C246.45 868.32 264.04 880.34 281.91 891.08 C282.56 891.48 283.21 891.88 283.89 892.29 C301.85 903.23 320.51 912.95 339.91 921.08 C340.66 921.4 341.4 921.72 342.17 922.05 C370.57 934.13 400.51 942.65 430.91 947.83 C432 948.02 433.09 948.21 434.21 948.4 C438.1 949.02 442 949.57 445.91 950.08 C447.36 950.27 447.36 950.27 448.84 950.46 C466.84 952.75 484.58 953.58 502.72 953.46 C503.99 953.45 505.25 953.45 506.55 953.44 C525.5 953.37 544.14 952.89 562.91 950.08 C564.12 949.91 565.32 949.73 566.57 949.55 C609.9 943.02 653.1 930.75 691.91 910.08 C693.7 909.2 695.49 908.33 697.29 907.46 C701.45 905.38 705.41 903.02 709.38 900.59 C711.81 899.14 714.28 897.83 716.79 896.52 C741.29 883.25 764.27 865.75 784.91 847.08 C785.68 846.4 786.45 845.73 787.24 845.03 C794.05 838.93 800.58 832.54 807.07 826.1 C808.07 825.1 809.08 824.11 810.09 823.11 C816.83 816.46 823.01 809.51 828.91 802.08 C829.83 800.96 830.76 799.85 831.7 798.73 C835.59 794.09 839.44 789.43 843.16 784.64 C847.96 778.66 852.01 774.42 859.91 773.08 C866.51 772.88 871.9 774.7 876.91 779.08 C876.91 779.74 876.91 780.4 876.91 781.08 C877.57 781.08 878.23 781.08 878.91 781.08 C882.47 786.56 883.05 791.75 881.91 798.08 C878.49 806.11 872.95 813.8 866.91 820.08 C866.25 820.08 865.59 820.08 864.91 820.08 C864.66 820.62 864.42 821.15 864.16 821.71 C862.6 824.66 860.88 827.38 858.91 830.08 C858.25 830.08 857.59 830.08 856.91 830.08 C856.64 830.66 856.37 831.24 856.1 831.83 C854.88 834.14 853.61 836.1 851.91 838.08 C851.25 838.08 850.59 838.08 849.91 838.08 C849.54 838.94 849.54 838.94 849.16 839.82 C847.71 842.44 846.01 844.15 843.85 846.21 C840.99 848.86 840.99 848.86 838.91 852.08 C838.25 852.08 837.59 852.08 836.91 852.08 C836.58 853.07 836.25 854.06 835.91 855.08 C835.25 855.08 834.59 855.08 833.91 855.08 C833.91 855.74 833.91 856.4 833.91 857.08 C833.25 857.08 832.59 857.08 831.91 857.08 C831.58 858.07 831.25 859.06 830.91 860.08 C830.25 860.08 829.59 860.08 828.91 860.08 C828.91 860.74 828.91 861.4 828.91 862.08 C828.25 862.08 827.59 862.08 826.91 862.08 C826.58 863.07 826.25 864.06 825.91 865.08 C825.25 865.08 824.59 865.08 823.91 865.08 C823.91 865.74 823.91 866.4 823.91 867.08 C822.45 868.59 822.45 868.59 820.54 870.21 C819.6 871.02 819.6 871.02 818.64 871.84 C816.91 873.08 816.91 873.08 814.91 873.08 C814.91 873.74 814.91 874.4 814.91 875.08 C809.43 880.08 809.43 880.08 806.91 880.08 C806.58 881.07 806.25 882.06 805.91 883.08 C803.91 884.91 803.91 884.91 801.47 886.77 C800.67 887.39 799.87 888.01 799.04 888.66 C796.91 890.08 796.91 890.08 794.91 890.08 C794.91 890.74 794.91 891.4 794.91 892.08 C791.45 895.08 791.45 895.08 788.91 895.08 C788.91 895.74 788.91 896.4 788.91 897.08 C787.59 897.41 786.27 897.74 784.91 898.08 C784.91 898.74 784.91 899.4 784.91 900.08 C782.47 901.99 780.02 903.77 777.47 905.52 C776.72 906.05 775.96 906.57 775.18 907.11 C769.66 910.93 764.09 914.66 758.47 918.33 C757.75 918.81 757.02 919.29 756.27 919.78 C751.15 923.08 751.15 923.08 748.91 923.08 C748.91 923.74 748.91 924.4 748.91 925.08 C747.48 925.92 746.04 926.75 744.6 927.58 C743.8 928.05 743 928.51 742.17 928.99 C739.91 930.08 739.91 930.08 736.91 930.08 C736.91 930.74 736.91 931.4 736.91 932.08 C735.26 932.41 733.61 932.74 731.91 933.08 C731.91 933.74 731.91 934.4 731.91 935.08 C730.91 935.58 730.91 935.58 729.88 936.08 C724.37 938.81 718.91 941.61 713.49 944.52 C707.43 947.78 701.47 950.86 695.01 953.27 C693.01 954.04 691.18 954.95 689.29 955.96 C683.45 958.96 677.2 961.04 671.05 963.29 C668.96 964.06 666.88 964.86 664.81 965.66 C657.29 968.56 649.81 971.09 642.03 973.21 C639.34 973.96 636.73 974.79 634.1 975.71 C630.34 977.01 626.56 977.88 622.66 978.65 C620.89 978.93 620.89 978.93 619.91 980.08 C617.85 980.56 615.78 981.04 613.71 981.48 C610.6 982.15 607.51 982.9 604.41 983.64 C599.89 984.7 595.5 985.42 590.88 985.84 C587.79 986.22 584.89 987.22 581.91 988.08 C574.44 989.63 567.03 990.34 559.43 990.8 C556.16 991.06 553.02 991.53 549.79 992.08 C537.94 993.88 525.87 993.81 513.91 994.08 C512.75 994.11 512.75 994.11 511.57 994.14 C507.02 994.23 502.47 994.18 497.91 994.08 C496.78 994.06 495.64 994.04 494.47 994.01 C491.12 993.94 487.76 993.85 484.41 993.76 C482.42 993.71 480.43 993.66 478.44 993.61 C470.62 993.37 463.04 992.69 455.32 991.54 C451.89 991.08 448.49 990.83 445.04 990.64 C439.5 990.3 434.12 989.55 428.66 988.58 C427.92 988.45 427.18 988.32 426.42 988.19 C421.19 987.22 421.19 987.22 418.91 986.08 C416.32 985.77 413.73 985.57 411.12 985.36 C408.91 985.08 408.91 985.08 407.91 984.08 C406.08 983.71 404.25 983.39 402.41 983.08 C397.02 982.19 397.02 982.19 395.91 981.08 C394.56 980.77 393.21 980.51 391.85 980.27 C381.81 978.33 371.82 976.14 362.41 972.09 C359.39 970.87 356.34 969.95 353.22 969.02 C348.6 967.63 344.29 966.1 339.91 964.08 C336.2 962.43 332.53 960.93 328.66 959.71 C325.26 958.6 322.05 957.3 318.8 955.8 C317.84 955.36 316.87 954.92 315.88 954.46 C314.41 953.78 314.41 953.78 312.91 953.08 C312 952.66 311.09 952.24 310.15 951.81 C297.11 945.73 284.35 939.32 271.91 932.08 C271.23 931.69 270.55 931.29 269.85 930.89 C262.64 926.69 255.6 922.34 248.86 917.39 C246.84 915.91 246.84 915.91 243.91 915.08 C243.91 914.42 243.91 913.76 243.91 913.08 C243.21 912.83 242.51 912.59 241.79 912.33 C238.52 910.91 235.77 909.21 232.91 907.08 C232.91 906.42 232.91 905.76 232.91 905.08 C232.01 904.9 232.01 904.9 231.1 904.71 C228.91 904.08 228.91 904.08 225.91 902.08 C225.91 901.42 225.91 900.76 225.91 900.08 C224.85 899.73 224.85 899.73 223.77 899.38 C220.34 897.82 217.95 895.8 215.1 893.33 C210.94 889.76 206.73 886.38 202.24 883.24 C201.8 882.86 201.36 882.48 200.91 882.08 C200.91 881.42 200.91 880.76 200.91 880.08 C200.33 879.81 199.76 879.55 199.16 879.27 C196.85 878.05 194.89 876.78 192.91 875.08 C192.91 874.42 192.91 873.76 192.91 873.08 C192.27 872.81 191.63 872.55 190.97 872.27 C188.91 871.08 188.91 871.08 187.91 868.08 C186.58 867.41 185.25 866.74 183.91 866.08 C182.2 864.56 180.55 862.98 178.93 861.36 C177.99 860.43 177.06 859.5 176.09 858.54 C175.61 858.05 175.13 857.57 174.64 857.07 C173.16 855.58 171.67 854.1 170.18 852.62 C169.25 851.69 168.32 850.76 167.36 849.8 C166.51 848.94 165.65 848.09 164.77 847.21 C162.91 845.08 162.91 845.08 162.91 843.08 C162.25 843.08 161.59 843.08 160.91 843.08 C155.91 837.61 155.91 837.61 155.91 835.08 C155.25 835.08 154.59 835.08 153.91 835.08 C152.32 833.51 152.32 833.51 150.54 831.39 C149.92 830.67 149.3 829.94 148.66 829.19 C148.09 828.49 147.51 827.8 146.91 827.08 C145.7 825.66 145.7 825.66 144.47 824.21 C142.91 822.08 142.91 822.08 142.91 820.08 C142.25 820.08 141.59 820.08 140.91 820.08 C139.46 818.35 138.1 816.54 136.79 814.71 C136.06 813.71 135.34 812.71 134.59 811.68 C132.91 809.08 132.91 809.08 132.91 807.08 C132.25 807.08 131.59 807.08 130.91 807.08 C127.91 802.7 127.91 802.7 127.91 800.08 C127.25 800.08 126.59 800.08 125.91 800.08 C122.91 795.7 122.91 795.7 122.91 793.08 C122.25 793.08 121.59 793.08 120.91 793.08 C120.91 792.09 120.91 791.1 120.91 790.08 C120.25 790.08 119.59 790.08 118.91 790.08 C117.78 788.68 117.78 788.68 116.56 786.72 C116.12 786.02 115.68 785.32 115.23 784.59 C114.77 783.84 114.32 783.1 113.85 782.33 C113.39 781.6 112.93 780.87 112.46 780.12 C110.38 776.78 108.71 773.97 107.91 770.08 C107.25 770.08 106.59 770.08 105.91 770.08 C105.35 768.92 105.35 768.92 104.77 767.74 C104.26 766.7 103.75 765.66 103.22 764.58 C102.72 763.56 102.22 762.54 101.71 761.49 C100 758.25 98.13 755.2 96.17 752.11 C89.73 741.74 84.68 730.64 80 719.39 C78.4 715.52 76.76 711.71 74.84 707.98 C72.81 704.01 71.33 699.93 69.91 695.71 C68.3 691.03 66.69 686.4 64.79 681.83 C61.06 672.68 58.57 663.15 56.3 653.55 C55.65 650.82 54.96 648.21 53.89 645.61 C52.57 642.21 52.02 638.72 51.41 635.14 C50.78 631.42 50.16 627.8 48.91 624.22 C47.51 619.82 47 615.4 46.41 610.83 C45.59 604.62 44.64 598.49 43.37 592.35 C35.91 555.52 36.96 509.34 42.51 472.25 C42.9 469.16 42.98 466.2 42.91 463.08 C38.58 462.03 34.36 461.07 29.91 460.77 C19.59 459.75 8.93 456.09 -0.09 451.08 C-1.17 450.63 -2.25 450.18 -3.36 449.71 C-7.15 448.11 -10.66 446.16 -14.21 444.08 C-14.81 443.74 -15.4 443.4 -16.02 443.04 C-17.71 442.06 -19.4 441.07 -21.09 440.08 C-22.06 439.55 -23.02 439.01 -24.02 438.46 C-25.04 437.78 -25.04 437.78 -26.09 437.08 C-26.09 436.42 -26.09 435.76 -26.09 435.08 C-26.96 434.74 -26.96 434.74 -27.84 434.39 C-31.32 432.36 -33.62 429.78 -34.71 425.86 C-35.33 421.36 -35 416.89 -34.83 412.36 C-35.11 408.78 -35.83 407.74 -38.09 405.08 C-38.09 404.09 -38.09 403.1 -38.09 402.08 C-38.75 402.08 -39.41 402.08 -40.09 402.08 C-44.08 396.52 -47.16 390.25 -50.09 384.08 C-50.54 383.18 -50.99 382.29 -51.46 381.36 C-58.7 366.49 -64.63 349.77 -64.09 333.08 C-65.3 333.02 -65.3 333.02 -66.53 332.96 C-72.42 331.51 -77.4 328.3 -81.09 323.46 C-87.11 309.17 -81.08 290.05 -76.09 276.08 C-75.56 274.85 -75.01 273.62 -74.46 272.4 C-72.58 267.84 -72.21 263.94 -73.09 259.08 C-75.53 255.79 -77.99 254.15 -81.4 251.89 C-82.29 251.3 -83.18 250.7 -84.09 250.08 C-84.09 249.42 -84.09 248.76 -84.09 248.08 C-84.67 247.82 -85.26 247.55 -85.86 247.28 C-93.82 243.01 -102.07 234.55 -107.09 227.08 C-107.09 226.42 -107.09 225.76 -107.09 225.08 C-107.75 225.08 -108.41 225.08 -109.09 225.08 C-110.38 223.66 -110.38 223.66 -111.71 221.77 C-112.16 221.15 -112.61 220.54 -113.07 219.91 C-114.09 218.08 -114.09 218.08 -114.09 215.08 C-114.75 215.08 -115.41 215.08 -116.09 215.08 C-123.2 202.01 -129.35 189.58 -133.09 175.08 C-133.34 174.32 -133.6 173.56 -133.86 172.78 C-136.82 163.06 -136.54 153.25 -136.48 143.18 C-136.46 140.09 -136.48 137 -136.5 133.9 C-136.51 123.88 -136.29 114.68 -133.09 105.08 C-132.77 103.84 -132.46 102.59 -132.13 101.3 C-129.91 93.11 -126.92 85.66 -123.09 78.08 C-122.43 76.75 -122.43 76.75 -121.76 75.39 C-118.69 69.45 -115.08 63.92 -111.34 58.39 C-110.86 57.67 -110.37 56.95 -109.87 56.21 C-108.67 54.46 -107.38 52.77 -106.09 51.08 C-105.43 51.08 -104.77 51.08 -104.09 51.08 C-103.82 50.5 -103.56 49.92 -103.29 49.32 C-98.93 41.16 -90.62 34.28 -83.09 29.08 C-82.43 29.08 -81.77 29.08 -81.09 29.08 C-81.09 28.42 -81.09 27.76 -81.09 27.08 C-79.77 26.75 -78.45 26.42 -77.09 26.08 C-77.09 25.42 -77.09 24.76 -77.09 24.08 C-74.18 22.04 -72.69 21.08 -69.09 21.08 C-69.09 20.42 -69.09 19.76 -69.09 19.08 C-63.59 15.77 -58.15 13.21 -52.06 11.17 C-49.59 10.26 -47.29 9.25 -44.91 8.13 C-39.89 5.87 -34.83 4.57 -29.46 3.39 C-28.5 3.18 -27.54 2.97 -26.55 2.75 C-17.65 0.85 -9.09 0.24 0 0 Z " fill="#000102" transform="translate(136.08984375,142.91796875)"/>
<path d="M0 0 C1.3 0.01 2.61 0.01 3.95 0.02 C32.85 0.56 55.02 12.15 74.8 32.61 C77.07 35.09 79.05 37.58 81 40.31 C87.69 49.25 100.54 55.48 111.44 57.5 C126.04 58.69 138.16 56.28 150.07 47.26 C170.46 32.12 197.4 27.97 222.13 30.81 C243.78 34.06 260.77 43.39 276.44 58.5 C277.63 59.58 277.63 59.58 278.84 60.68 C297.05 77.67 306.75 102.33 307.64 126.94 C308.13 155.35 299.31 179.79 280.14 201.04 C273.13 208.25 265.44 214.92 256.44 219.5 C255.13 220.21 255.13 220.21 253.8 220.93 C238.86 228.79 223.92 231.62 207.22 232.07 C193.27 232.53 179.58 236.53 168.94 246 C158.32 257.89 155.37 272.7 154.56 288.06 C153.92 298.37 152.96 307.73 149.44 317.5 C149.09 318.5 148.74 319.5 148.38 320.53 C139.09 344.88 120.32 364.99 96.77 376.04 C70.96 387.37 43 387.63 16.56 378.19 C7.84 374.61 -0.06 369.56 -7.94 364.45 C-12.25 361.93 -16.74 361.94 -21.56 362.5 C-26.92 364.23 -30.41 366.77 -33.56 371.5 C-36.72 370.13 -37.56 369.51 -39.56 366.5 C-39.56 365.51 -39.56 364.52 -39.56 363.5 C-40.22 363.5 -40.88 363.5 -41.56 363.5 C-45.55 357.94 -48.63 351.67 -51.56 345.5 C-52.01 344.6 -52.46 343.71 -52.93 342.78 C-60.57 327.09 -66.16 310.06 -65.56 292.5 C-64.92 292.38 -64.28 292.25 -63.62 292.12 C-62.76 291.92 -61.89 291.71 -61 291.5 C-60.15 291.31 -59.31 291.13 -58.43 290.94 C-53.23 288.33 -49.54 284.38 -47.65 278.83 C-47 275.81 -46.51 272.8 -46.06 269.75 C-44.32 259.55 -41.68 250.24 -38.02 240.58 C-33.67 228.86 -35.18 215.8 -40.04 204.48 C-44.71 195.36 -50.91 188.51 -58.88 182.12 C-82.17 163.19 -96.9 141.67 -100.56 111.5 C-103.18 83.89 -94.96 56.97 -77.56 35.5 C-57.95 12.57 -30.21 -0.16 0 0 Z " fill="#00DCC2" transform="translate(137.5625,181.5)"/>
<path d="M0 0 C0.65 0.22 1.3 0.44 1.97 0.67 C15.3 5.27 25.84 12.25 36 22 C36.9 22.82 37.79 23.64 38.72 24.49 C56.4 41.23 67.4 63.99 68.38 88.37 C68.75 102.26 68.51 115.73 64 129 C63.63 130.16 63.25 131.32 62.87 132.52 C60.23 140.02 56.6 146.53 52 153 C51.57 153.61 51.14 154.21 50.69 154.84 C47.09 159.79 43.16 164.19 38.81 168.5 C38.16 169.15 37.5 169.81 36.83 170.48 C32.32 174.91 27.59 178.6 22.37 182.18 C18.44 185.2 15.73 188.9 13 193 C12.28 194.07 11.56 195.14 10.81 196.25 C4.32 208.57 2.55 222.73 6.59 236.08 C7.47 238.72 8.4 241.35 9.32 243.97 C10.49 247.47 11.37 251.04 12.25 254.62 C12.56 255.9 12.88 257.17 13.2 258.48 C18.28 280.93 15.7 308.3 3.61 328.3 C2.46 329.91 1.24 331.46 0 333 C-0.47 333.79 -0.94 334.58 -1.43 335.39 C-14.64 357.3 -36.24 371.51 -60.62 377.88 C-87.5 384.1 -115.5 379.58 -139.09 365.53 C-145.27 361.66 -150.66 356.94 -156 352 C-156.67 351.4 -157.35 350.79 -158.04 350.17 C-176.29 333.01 -185.37 308.74 -186.44 284.12 C-187.19 268.14 -191.3 252.81 -202.71 240.96 C-213.84 231.42 -225.79 228.82 -240.03 227.78 C-264.71 225.91 -284.95 219.12 -304 203 C-304.96 202.21 -305.91 201.41 -306.9 200.6 C-322.52 187.1 -332.44 170.11 -337 150 C-337.18 149.27 -337.35 148.54 -337.53 147.78 C-343.44 121.33 -337.38 93.42 -323.03 70.79 C-316.77 61.34 -308.9 53.01 -300 46 C-299.28 45.43 -298.56 44.86 -297.81 44.27 C-285.2 34.87 -271.18 30.38 -256 27 C-255.2 26.82 -254.41 26.64 -253.59 26.46 C-227.49 21.86 -202.27 29.3 -180.3 42.95 C-167.95 50.61 -155.17 54.25 -140.57 51.31 C-127 47.49 -116.58 39.67 -107.5 29 C-95.94 15.46 -80.96 5.35 -64 0 C-63.36 -0.21 -62.72 -0.42 -62.06 -0.63 C-42.58 -6.7 -19.31 -6.55 0 0 Z " fill="#00DCC2" transform="translate(1173,186)"/>
<path d="M0 0 C11.88 10.31 21.76 23.23 29.36 36.95 C29.79 37.72 30.22 38.48 30.66 39.27 C44.43 63.88 53.09 91.41 51.36 119.95 C51.3 120.97 51.3 120.97 51.23 122.02 C48.33 165.9 28.94 202.66 -3.64 231.95 C-8.09 235.62 -12.81 238.82 -17.64 241.95 C-18.42 242.51 -19.21 243.06 -20.01 243.64 C-50.03 264.84 -90.43 270.6 -126.1 265 C-134.85 263.46 -143.25 260.84 -151.64 257.95 C-152.83 257.55 -154.02 257.15 -155.25 256.73 C-186.47 245.47 -214.7 222.44 -231.64 193.95 C-232.03 193.29 -232.42 192.64 -232.83 191.96 C-253.57 156.42 -258.63 114.55 -248.27 74.89 C-238.12 38.1 -214.71 4.65 -181.64 -15.05 C-177.08 -17.62 -172.39 -19.85 -167.64 -22.05 C-166.36 -22.7 -165.08 -23.36 -163.81 -24.02 C-110.06 -50.96 -44.61 -37.68 0 0 Z " fill="#E4445F" transform="translate(740.640625,600.046875)"/>
<path d="M0 0 C4.76 2.49 9.24 5.11 13.56 8.31 C26.95 17.83 43.09 24.23 59 28 C59 28.66 59 29.32 59 30 C59.66 30 60.32 30 61 30 C76.53 106 65.19 188.04 36.73 259.63 C33.89 266.83 31.88 272.74 34.96 280.14 C36.51 282.91 38.68 284.87 41 287 C41 287.66 41 288.32 41 289 C41.99 289.33 42.98 289.66 44 290 C43.67 291.65 43.34 293.3 43 295 C42.67 294.34 42.34 293.68 42 293 C41.67 293.33 41.34 293.66 41 294 C41.06 295.08 41.06 295.08 41.12 296.19 C40.97 299.71 39.7 301.95 38 305 C37.34 305 36.68 305 36 305 C35.88 305.72 35.75 306.44 35.62 307.19 C34.59 311.83 33.33 314.67 30 318 C28.81 320.6 28.81 320.6 28 323 C27.34 323 26.68 323 26 323 C25.88 323.72 25.75 324.44 25.62 325.19 C24.6 329.79 24.02 332.32 20 335 C19.32 336.66 18.65 338.33 18 340 C17.02 341.02 16.02 342.02 15 343 C13.82 345.1 13.82 345.1 13 347 C12.2 346.86 11.39 346.71 10.56 346.56 C9.39 346.38 8.21 346.19 7 346 C5.97 345.8 5.97 345.8 4.91 345.61 C-0.98 344.66 -5.79 344.89 -11 348 C-17.26 353.64 -22.26 360.52 -27.31 367.22 C-30.57 371.52 -34.04 375.53 -37.7 379.49 C-38.94 380.85 -40.18 382.21 -41.37 383.61 C-46.67 389.83 -52.42 395.57 -58.2 401.33 C-59.93 403.06 -61.67 404.8 -63.4 406.53 C-69.09 412.23 -74.82 417.82 -81 423 C-81.63 423.54 -82.26 424.08 -82.91 424.63 C-98.13 437.55 -114.24 449.17 -131 460 C-131.66 460.43 -132.33 460.86 -133.01 461.3 C-140.53 466.16 -148.02 470.76 -156.16 474.55 C-158.49 475.74 -160.6 477 -162.8 478.42 C-166.93 481.04 -171.2 483.02 -175.69 484.94 C-177.15 485.57 -178.61 486.2 -180.07 486.84 C-181.23 487.34 -181.23 487.34 -182.42 487.85 C-185.39 489.17 -188.33 490.56 -191.28 491.95 C-197.71 494.92 -204.23 497.5 -210.88 499.94 C-212.04 500.37 -213.21 500.8 -214.42 501.24 C-239.49 510.32 -264.93 516.55 -291.25 520.75 C-292.48 520.95 -293.71 521.15 -294.97 521.35 C-316.01 524.57 -336.99 525.41 -358.25 525.38 C-359.52 525.37 -360.79 525.37 -362.09 525.37 C-382.67 525.34 -402.69 524.33 -423 521 C-424.21 520.81 -425.42 520.61 -426.67 520.42 C-434.49 519.15 -442.25 517.66 -450 516 C-450.96 515.8 -451.91 515.59 -452.9 515.39 C-466.4 512.45 -479.47 508.35 -492.56 504 C-493.32 503.75 -494.08 503.5 -494.86 503.24 C-509.04 498.51 -523.05 493.59 -536 486 C-534 485 -534 485 -532.17 485.49 C-531.02 485.89 -531.02 485.89 -529.86 486.31 C-522.82 488.52 -515.62 489.26 -508.31 490.06 C-507.57 490.15 -506.83 490.23 -506.07 490.32 C-459.9 495.53 -413.93 495.67 -368 488 C-366.4 487.74 -366.4 487.74 -364.77 487.47 C-302.76 477.16 -242.51 451.87 -191 416 C-189.95 415.27 -189.95 415.27 -188.88 414.53 C-174.38 404.38 -160.56 393.44 -147.59 381.38 C-145.54 379.5 -143.46 377.68 -141.35 375.87 C-136.15 371.33 -131.31 366.45 -126.44 361.56 C-125.53 360.66 -124.62 359.76 -123.69 358.83 C-118.58 353.71 -113.67 348.51 -109 343 C-108.09 341.94 -107.17 340.89 -106.26 339.83 C-99.93 332.4 -93.83 324.83 -88 317 C-87.5 316.33 -87 315.67 -86.49 314.98 C-34.07 244.47 0.3 154.43 0.13 65.82 C0.13 64.7 0.13 63.57 0.14 62.41 C0.14 60.03 0.13 57.66 0.13 55.29 C0.13 51.73 0.13 48.18 0.14 44.63 C0.14 32.35 -0.05 20.12 -0.74 7.86 C-0.79 6.97 -0.83 6.07 -0.88 5.16 C-0.93 4.37 -0.98 3.59 -1.02 2.79 C-1 1 -1 1 0 0 Z M36 302 C37 304 37 304 37 304 Z M31 311 C30.34 312.32 29.68 313.64 29 315 C29.99 314.67 30.98 314.34 32 314 C31.67 313.01 31.34 312.02 31 311 Z M28 315 C29 317 29 317 29 317 Z M26 318 C26 318.99 26 319.98 26 321 C25.01 321.5 25.01 321.5 24 322 C24.99 322 25.98 322 27 322 C27.33 320.68 27.66 319.36 28 318 C27.34 318 26.68 318 26 318 Z M19 330 C19 330.99 19 331.98 19 333 C19.66 332.67 20.32 332.34 21 332 C20.34 331.34 19.68 330.68 19 330 Z M21 330 C22 332 22 332 22 332 Z M15 336 C14.67 337.32 14.34 338.64 14 340 C14.99 339.67 15.98 339.34 17 339 C16.67 338.01 16.34 337.02 16 336 C15.67 336 15.34 336 15 336 Z " fill="#D9DEE1" transform="translate(998,572)"/>
<path d="M0 0 C11.88 10.31 21.76 23.23 29.36 36.95 C29.79 37.72 30.22 38.48 30.66 39.27 C44.43 63.88 53.09 91.41 51.36 119.95 C51.3 120.97 51.3 120.97 51.23 122.02 C48.33 165.9 28.94 202.66 -3.64 231.95 C-8.09 235.62 -12.81 238.82 -17.64 241.95 C-18.42 242.51 -19.21 243.06 -20.01 243.64 C-50.03 264.84 -90.43 270.6 -126.1 265 C-134.85 263.46 -143.25 260.84 -151.64 257.95 C-152.83 257.55 -154.02 257.15 -155.25 256.73 C-186.47 245.47 -214.7 222.44 -231.64 193.95 C-232.03 193.29 -232.42 192.64 -232.83 191.96 C-253.57 156.42 -258.63 114.55 -248.27 74.89 C-238.12 38.1 -214.71 4.65 -181.64 -15.05 C-177.08 -17.62 -172.39 -19.85 -167.64 -22.05 C-166.36 -22.7 -165.08 -23.36 -163.81 -24.02 C-110.06 -50.96 -44.61 -37.68 0 0 Z M-169.64 22.95 C-170.33 23.46 -171.02 23.97 -171.73 24.49 C-181.64 31.83 -190.13 40.45 -196.64 50.95 C-197.3 52.01 -197.96 53.07 -198.63 54.16 C-206.98 67.99 -211.66 82.17 -214.64 97.95 C-214.83 98.91 -215.03 99.86 -215.23 100.85 C-218.98 128.98 -211.31 159.06 -194.2 181.7 C-193.03 183.13 -191.84 184.55 -190.64 185.95 C-189.99 186.74 -189.33 187.53 -188.66 188.34 C-172.18 207.49 -151.68 219.02 -127.62 225.94 C-127.02 226.11 -126.42 226.28 -125.81 226.46 C-107.6 230.61 -84.33 229.78 -66.64 223.95 C-65.96 223.74 -65.28 223.52 -64.58 223.3 C-48.72 218.2 -35.84 210.21 -23.64 198.95 C-23.12 198.48 -22.6 198.01 -22.07 197.53 C-6.39 183.22 3.47 165.27 9.36 144.95 C9.68 143.89 10 142.82 10.34 141.72 C17.96 111.38 11.24 80.03 -4.35 53.61 C-7.36 48.69 -10.83 44.28 -14.64 39.95 C-15.33 39.14 -16.01 38.32 -16.72 37.48 C-36.13 14.93 -63.71 2.05 -93.3 -0.25 C-119.75 -1.59 -148.97 5.74 -169.64 22.95 Z " fill="#000102" transform="translate(740.640625,600.046875)"/>
<path d="M0 0 C8.64 6.53 10.4 18.34 12.38 28.38 C14.99 41.32 18.15 53.9 23.8 65.92 C24.95 68.43 25.93 70.99 26.94 73.56 C36.36 96.22 51.21 116.93 67.77 134.9 C69.64 136.93 71.41 139.01 73.19 141.12 C84.11 153.59 98.08 163.95 111.81 173.12 C112.41 173.53 113.02 173.94 113.64 174.36 C123.67 181.13 133.78 187.14 144.81 192.12 C145.69 192.52 146.56 192.92 147.46 193.32 C202.69 217.97 262.85 221.18 320.81 204.12 C321.54 203.91 322.27 203.7 323.02 203.48 C332.75 200.58 341.73 196.59 350.81 192.12 C351.77 191.68 352.73 191.23 353.72 190.77 C368.77 183.58 382.93 174.69 395.81 164.12 C396.73 163.4 397.65 162.67 398.59 161.93 C423.72 141.84 445.14 116.86 459.81 88.12 C460.73 86.38 460.73 86.38 461.67 84.59 C472.86 63.09 479.95 40.6 485.08 16.96 C486.79 9.31 489.25 4.8 495.81 0.12 C502.35 -2.54 507.38 -1.91 513.94 0.06 C519.09 3.76 522.04 8.59 523.4 14.79 C524.98 42.63 509.41 76.98 496.81 101.12 C496.2 102.33 495.59 103.53 494.98 104.73 C477.63 138.06 452.09 170.65 421.81 193.12 C421.1 193.66 420.39 194.19 419.66 194.74 C397.7 211.21 397.7 211.21 388.81 215.94 C387.9 216.43 386.98 216.91 386.04 217.42 C384.44 218.26 384.44 218.26 382.81 219.12 C381.44 219.87 380.06 220.62 378.68 221.36 C377.21 222.16 375.73 222.95 374.25 223.75 C373.57 224.12 372.88 224.49 372.18 224.88 C366.87 227.71 361.42 229.96 355.81 232.12 C354.25 232.76 352.68 233.39 351.12 234.02 C318.83 246.84 285.37 253.54 250.64 253.39 C247.81 253.38 244.99 253.39 242.16 253.4 C198.15 253.44 152.99 241.95 114.67 220.18 C112.87 219.16 111.05 218.16 109.23 217.17 C95.66 209.67 83.05 200.62 70.81 191.12 C69.95 190.45 69.08 189.78 68.19 189.09 C62.42 184.49 56.97 179.59 51.56 174.56 C50.9 173.95 50.24 173.34 49.56 172.7 C45 168.42 40.87 163.88 36.81 159.12 C35.94 158.14 35.07 157.15 34.18 156.13 C18.29 137.75 4.93 117.83 -5.03 95.66 C-5.86 93.83 -6.72 92.02 -7.59 90.21 C-11.63 81.74 -14.82 73.15 -17.75 64.25 C-17.99 63.53 -18.22 62.82 -18.47 62.08 C-32.2 20.49 -32.2 20.49 -26.5 7.62 C-23.82 3.11 -20.82 0.78 -15.94 -1.19 C-10.23 -2.23 -5.55 -1.52 0 0 Z " fill="#000102" transform="translate(392.1875,721.875)"/>
<path d="M0 0 C3.68 0.55 4.99 1.75 7.19 4.69 C8.48 6.44 9.75 8.22 11 10 C12.13 11.59 12.13 11.59 13.28 13.22 C27.82 34.4 32.13 61.51 27.88 86.69 C22.84 113.59 6.85 135.98 -15 152 C-17.34 153.48 -19.55 154.76 -22 156 C-23.31 156.71 -23.31 156.71 -24.64 157.43 C-39.58 165.29 -54.52 168.12 -71.21 168.57 C-85.17 169.03 -98.86 173.03 -109.5 182.5 C-120.12 194.39 -123.07 209.2 -123.88 224.56 C-124.52 234.87 -125.47 244.23 -129 254 C-129.35 255 -129.7 256 -130.05 257.03 C-139.34 281.38 -158.12 301.49 -181.67 312.54 C-207.48 323.87 -235.43 324.13 -261.88 314.69 C-270.59 311.11 -278.5 306.06 -286.38 300.95 C-290.69 298.43 -295.17 298.44 -300 299 C-305.36 300.73 -308.84 303.27 -312 308 C-315.16 306.63 -315.99 306.01 -318 303 C-318 302.01 -318 301.02 -318 300 C-318.66 300 -319.32 300 -320 300 C-321.51 297.95 -321.51 297.95 -323.12 295.25 C-323.93 293.93 -323.93 293.93 -324.76 292.58 C-326 290 -326 290 -326 286 C-319.45 287.5 -313.1 289.27 -306.75 291.5 C-278.36 301.17 -246.37 298.72 -219.32 285.81 C-209.32 280.85 -200.54 275.17 -192 268 C-191.33 267.48 -190.66 266.96 -189.97 266.43 C-168.78 249.62 -155.11 219.46 -152 193 C-151.77 190 -151.58 187.01 -151.39 184.01 C-150.49 169.98 -148.72 160.43 -137.73 150.72 C-129.02 145.24 -120.44 144.24 -110.31 143.5 C-99.85 142.62 -89.97 141.51 -80 138 C-78.36 137.45 -78.36 137.45 -76.68 136.88 C-47.14 126.24 -23.25 104.83 -9.71 76.49 C-3.51 62.87 1.12 47.75 1.13 32.7 C1.13 32.01 1.13 31.33 1.14 30.63 C1.14 29.19 1.13 27.75 1.13 26.31 C1.13 24.14 1.13 21.96 1.14 19.79 C1.14 18.38 1.13 16.98 1.13 15.57 C1.13 14.31 1.13 13.05 1.13 11.75 C0.99 7.76 0.55 3.95 0 0 Z " fill="#00BA9E" transform="translate(416,245)"/>
<path d="M0 0 C4.44 1.42 7.38 3.84 10.69 7 C11.21 7.49 11.73 7.99 12.27 8.49 C13.34 9.51 14.41 10.52 15.47 11.54 C16.85 12.86 18.25 14.14 19.65 15.42 C36.95 31.71 47.43 54.7 48.38 78.37 C48.75 92.26 48.51 105.73 44 119 C43.63 120.16 43.25 121.32 42.87 122.52 C40.23 130.02 36.6 136.53 32 143 C31.57 143.61 31.14 144.21 30.69 144.84 C27.09 149.79 23.16 154.19 18.81 158.5 C18.16 159.15 17.5 159.81 16.83 160.48 C12.32 164.91 7.59 168.6 2.37 172.18 C-1.56 175.2 -4.27 178.9 -7 183 C-7.72 184.07 -8.44 185.14 -9.19 186.25 C-15.68 198.57 -17.45 212.73 -13.41 226.08 C-12.53 228.72 -11.6 231.35 -10.68 233.97 C-9.51 237.47 -8.63 241.04 -7.75 244.62 C-7.44 245.9 -7.12 247.17 -6.8 248.48 C-1.72 270.93 -4.3 298.3 -16.39 318.3 C-17.54 319.91 -18.76 321.46 -20 323 C-20.47 323.79 -20.94 324.58 -21.43 325.39 C-34.64 347.3 -56.24 361.51 -80.62 367.88 C-104.92 373.5 -130.88 370.42 -153 359 C-153 358.34 -153 357.68 -153 357 C-152.34 356.89 -151.67 356.77 -150.99 356.65 C-115.94 350.46 -86.14 336.44 -64.81 306.88 C-45.81 279.62 -39.29 246.8 -44.87 214.22 C-45.98 208.56 -47.82 203.2 -49.69 197.75 C-53.27 187.25 -55.61 176.79 -51.44 166 C-47.16 158.15 -40.71 152.79 -33.82 147.27 C-20.06 136.22 -10.1 123.61 -2 108 C-1.53 107.1 -1.06 106.2 -0.57 105.27 C2.06 99.87 3.96 94.31 5.69 88.56 C5.89 87.9 6.09 87.23 6.3 86.54 C13.52 61.43 11.45 34.81 2.34 10.6 C2.04 9.79 1.74 8.99 1.43 8.17 C1.01 7.1 1.01 7.1 0.59 6.02 C0 4 0 4 0 0 Z " fill="#00BA9E" transform="translate(1193,196)"/>
<path d="M0 0 C0.47 0.42 0.94 0.84 1.43 1.28 C2.36 2.1 2.36 2.1 3.31 2.94 C3.93 3.48 4.54 4.03 5.18 4.59 C7.05 6.2 7.05 6.2 10 7 C11.65 8.82 13.15 10.61 14.62 12.56 C15.28 13.43 15.28 13.43 15.95 14.31 C35.83 41.16 42.96 72.39 38.34 105.52 C35.45 122.17 28.8 137.32 19 151 C18.45 151.79 17.9 152.59 17.33 153.41 C-0.02 177.11 -26.03 192.6 -54.84 197.61 C-60.44 198.3 -66.04 198.33 -71.68 198.32 C-73.73 198.31 -75.79 198.34 -77.84 198.36 C-90.23 198.42 -102.08 196.51 -113.75 192.19 C-114.46 191.93 -115.17 191.67 -115.9 191.41 C-125.37 187.87 -133.72 182.76 -142 177 C-141.67 176.01 -141.34 175.02 -141 174 C-139.79 174.02 -138.58 174.05 -137.33 174.07 C-98.21 174.59 -63.18 165.35 -34.31 137.76 C-9.15 113.11 4.85 81.89 5.35 46.59 C5.46 33.8 4.85 21.49 2 9 C1.79 7.98 1.57 6.97 1.36 5.92 C0.93 3.94 0.47 1.97 0 0 Z " fill="#CC1E4B" transform="translate(714,630)"/>
<path d="M0 0 C5.14 3.59 8.97 8.28 10.21 14.51 C10.74 18.24 10.91 21.92 11 25.68 C11.02 26.4 11.05 27.13 11.07 27.87 C11.13 30.17 11.19 32.46 11.25 34.75 C11.29 36.31 11.34 37.88 11.38 39.44 C11.49 43.25 11.59 47.06 11.69 50.88 C13.27 50.85 13.27 50.85 14.88 50.83 C18.82 50.77 22.75 50.74 26.68 50.71 C28.38 50.7 30.08 50.67 31.78 50.65 C34.23 50.61 36.68 50.6 39.13 50.58 C40.26 50.56 40.26 50.56 41.41 50.54 C46.56 50.53 50.1 51.47 54.69 53.88 C56.94 56.19 56.94 56.19 58.69 58.88 C59.26 59.74 59.84 60.61 60.44 61.5 C62.61 67.37 62.45 73.2 60.75 79.19 C57.19 83.83 52.23 87.03 46.69 88.88 C43.96 88.96 41.25 88.99 38.52 88.97 C37.72 88.97 36.93 88.97 36.11 88.97 C33.57 88.96 31.04 88.95 28.5 88.94 C26.78 88.93 25.06 88.93 23.34 88.92 C19.12 88.91 14.9 88.9 10.69 88.88 C10.72 90.39 10.72 90.39 10.75 91.93 C10.82 95.71 10.87 99.5 10.91 103.28 C10.93 104.91 10.95 106.54 10.99 108.17 C11.41 128.29 11.41 128.29 5.31 135.5 C0.68 139.74 -3.99 141.12 -10.12 140.88 C-15.73 140.15 -20.36 137.94 -24.31 133.88 C-27.15 128.43 -27.73 124.18 -27.61 118.1 C-27.6 117.29 -27.6 116.47 -27.59 115.64 C-27.58 113.07 -27.54 110.5 -27.5 107.94 C-27.48 106.19 -27.47 104.44 -27.46 102.69 C-27.43 98.42 -27.37 94.15 -27.31 89.88 C-28.89 89.85 -28.89 89.85 -30.51 89.83 C-34.44 89.77 -38.37 89.7 -42.31 89.61 C-44.01 89.58 -45.71 89.55 -47.4 89.53 C-49.85 89.49 -52.3 89.44 -54.75 89.39 C-55.51 89.38 -56.26 89.37 -57.03 89.37 C-64.44 89.16 -70.52 86.62 -76.31 81.88 C-79.58 76.43 -80.22 71.16 -79.31 64.88 C-77.79 60.47 -75.77 57.01 -72.31 53.88 C-63.66 49.88 -54.6 50.32 -45.25 50.19 C-43.6 50.15 -41.96 50.12 -40.31 50.08 C-36.31 50 -32.31 49.93 -28.31 49.88 C-28.3 48.82 -28.28 47.77 -28.27 46.68 C-28.21 42.75 -28.13 38.81 -28.05 34.88 C-28.02 33.18 -27.99 31.48 -27.97 29.78 C-27.93 27.33 -27.88 24.88 -27.82 22.43 C-27.81 21.31 -27.81 21.31 -27.8 20.16 C-27.63 13.79 -26.19 9.11 -22 4.12 C-15.23 -1.54 -8.38 -2.85 0 0 Z " fill="#000102" transform="translate(843.3125,483.125)"/>
<path d="M0 0 C5.26 3.27 8.37 8.22 10.31 14.06 C10.45 16.71 10.55 19.33 10.59 21.98 C10.61 22.75 10.63 23.52 10.65 24.31 C10.73 27.61 10.8 30.9 10.86 34.2 C10.92 36.6 10.97 39.01 11.03 41.41 C11.04 42.17 11.06 42.92 11.07 43.69 C10.85 47.17 10.85 47.17 12.31 50.06 C14.83 50.2 17.33 50.27 19.86 50.31 C21.42 50.34 22.98 50.37 24.55 50.41 C27.02 50.46 29.49 50.5 31.96 50.54 C34.34 50.58 36.72 50.63 39.11 50.68 C39.84 50.69 40.57 50.7 41.32 50.71 C47.06 50.85 51.47 51.53 55.94 55.25 C60.88 61.1 63 65.04 62.62 72.71 C61.77 79.21 58.06 82.53 53.35 86.64 C49.05 89.64 44.12 89.27 39.05 89.38 C37.86 89.41 37.86 89.41 36.64 89.44 C34.12 89.51 31.59 89.57 29.06 89.62 C27.35 89.67 25.63 89.71 23.91 89.76 C19.71 89.86 15.51 89.96 11.31 90.06 C11.3 91.12 11.28 92.17 11.27 93.26 C11.21 97.19 11.13 101.12 11.05 105.06 C11.02 106.76 10.99 108.46 10.97 110.15 C10.93 112.6 10.88 115.05 10.82 117.5 C10.82 118.26 10.81 119.01 10.8 119.78 C10.64 125.75 9.36 130.43 5.62 135.24 C1.26 139.19 -2.21 141.13 -8.16 141.34 C-14.28 140.67 -20.54 137.58 -24.69 133.06 C-28.61 124.48 -28.03 115.73 -27.88 106.5 C-27.86 104.9 -27.85 103.31 -27.83 101.71 C-27.8 97.83 -27.75 93.94 -27.69 90.06 C-28.68 90.06 -29.68 90.06 -30.71 90.07 C-34.47 90.06 -38.22 90.02 -41.98 89.96 C-43.6 89.95 -45.21 89.94 -46.83 89.94 C-57.19 89.96 -65.98 89.46 -74.69 83.06 C-78.01 79.25 -79.63 75.21 -79.73 70.08 C-79.21 63.79 -76.87 59.19 -72.31 54.75 C-66.82 51.22 -61.62 50.78 -55.23 50.87 C-54.44 50.87 -53.65 50.87 -52.83 50.88 C-50.32 50.89 -47.82 50.91 -45.31 50.94 C-43.61 50.95 -41.9 50.96 -40.19 50.96 C-36.02 50.99 -31.86 51.02 -27.69 51.06 C-27.7 49.63 -27.7 49.63 -27.72 48.18 C-27.76 44.6 -27.78 41.03 -27.8 37.46 C-27.81 35.92 -27.82 34.38 -27.84 32.84 C-28.09 10.48 -28.09 10.48 -21.38 3.5 C-14.97 -1.95 -7.74 -1.97 0 0 Z " fill="#000102" transform="translate(452.6875,482.9375)"/>
<path d="" fill="#465C59" transform="translate(0,0)"/>
<path d="" fill="#000102" transform="translate(0,0)"/>
<path d="" fill="#465C59" transform="translate(0,0)"/>
<path d="" fill="#000102" transform="translate(0,0)"/>
<path d="" fill="#000102" transform="translate(0,0)"/>
<path d="" fill="#00DDC3" transform="translate(0,0)"/>
</svg>
